<svg width="121" height="121" viewBox="0 0 121 121" fill="none" xmlns="http://www.w3.org/2000/svg">
<rect x="13.5823" y="12.2887" width="93.1356" height="95.0759" fill="white"/>
<path d="M120.52 28.2511C120.518 26.0787 120.32 23.9109 119.929 21.7739C119.492 19.1584 118.666 16.6231 117.478 14.2523C116.177 11.7617 114.481 9.49873 112.455 7.55174C109.403 4.5548 105.626 2.40012 101.493 1.29786C97.7002 0.380922 93.8036 -0.0351164 89.9028 0.0603656L89.8847 0H30.7324V0.0603656C28.5133 0.0498561 26.2951 0.150592 24.0861 0.362193C21.666 0.616451 19.2837 1.15126 16.9871 1.95585C13.2013 3.38169 9.80523 5.6806 7.07494 8.66577C4.34465 11.6509 2.35715 15.2382 1.27397 19.1359C0.358032 22.8981 -0.0580504 26.7646 0.0364711 30.6356L0.000251419 90.0233C-0.007719 92.7149 0.173828 95.4038 0.543543 98.07C0.947583 100.887 1.78233 103.626 3.01853 106.189C4.75592 109.615 7.2321 112.613 10.2684 114.966C12.4387 116.694 14.8972 118.024 17.5304 118.896C21.3926 120.091 25.4162 120.681 29.4587 120.647C31.994 120.665 34.5234 120.731 37.0527 120.719C55.4461 120.641 73.8395 120.852 92.2269 120.605C94.659 120.558 97.0827 120.301 99.4707 119.838C103.981 119.043 108.178 116.999 111.586 113.94C115.601 110.45 118.404 105.774 119.591 100.587C120.326 97.115 120.676 93.5723 120.635 90.0233V89.317C120.635 89.0393 120.532 29.0479 120.52 28.2572M104.366 84.0954C103.594 85.9063 99.6941 87.4034 93.0901 88.4236C92.4744 88.5202 92.2088 89.5222 91.8526 91.1642C91.7117 91.8322 91.5447 92.5103 91.3516 93.1985C91.2907 93.4924 91.1246 93.754 90.8845 93.934C90.6444 94.1141 90.3468 94.2003 90.0477 94.1764H89.939C89.3099 94.1449 88.6842 94.0642 88.0677 93.935C86.438 93.5915 84.7771 93.4175 83.1117 93.4158C81.9142 93.4178 80.7189 93.5188 79.538 93.7177C77.0442 94.3421 74.7257 95.5271 72.7589 97.1826C69.4265 100.024 65.2417 101.672 60.8669 101.867L60.1908 101.849L59.7502 101.867C55.3744 101.677 51.1881 100.028 47.8581 97.1826C45.8867 95.5342 43.5699 94.35 41.0791 93.7177C39.8982 93.5188 38.7029 93.4178 37.5054 93.4158C35.8405 93.4318 34.1817 93.6199 32.5554 93.9772C31.9376 94.1148 31.3099 94.2037 30.6781 94.2428C30.3595 94.2802 30.0384 94.1976 29.7773 94.0113C29.5162 93.825 29.3338 93.5481 29.2655 93.2347C29.0643 92.5305 28.8973 91.8463 28.7645 91.1823C28.4023 89.5343 28.1427 88.5262 27.527 88.4296C20.923 87.4155 17.0234 85.9124 16.2446 84.0954C16.1673 83.9131 16.1204 83.7194 16.1058 83.5219C16.0919 83.2608 16.1747 83.0038 16.3384 82.8C16.5022 82.5962 16.7353 82.4599 16.9932 82.4172C22.4542 81.4279 27.3752 78.5023 30.8531 74.1773C32.7596 71.9581 34.3465 69.4833 35.5677 66.8248L35.5918 66.7765C35.9465 66.1851 36.1704 65.5246 36.2485 64.8395C36.3266 64.1544 36.2571 63.4604 36.0446 62.8044C35.1995 60.8003 32.3804 59.9069 30.5151 59.3153C30.0936 59.1896 29.6768 59.0487 29.2655 58.8927C27.6115 58.2408 24.895 56.8584 25.2572 54.9569C25.5337 54.2401 26.0275 53.6277 26.6694 53.2055C27.3113 52.7834 28.0692 52.5725 28.8369 52.6026C29.2111 52.5898 29.583 52.6642 29.9235 52.8199C31.3141 53.5317 32.8419 53.9353 34.4026 54.0031C35.3323 54.0704 36.2536 53.7884 36.9863 53.2123C36.938 52.331 36.8836 51.4496 36.8233 50.5683C35.9776 44.6189 36.341 38.5601 37.8918 32.7544C39.7187 28.587 42.7317 25.0494 46.5553 22.5826C50.379 20.1158 54.844 18.8289 59.394 18.8824L61.1748 18.8703C65.7309 18.8097 70.2038 20.0932 74.0345 22.5605C77.8653 25.0277 80.8839 28.5692 82.7132 32.7423C84.2652 38.5561 84.6266 44.6235 83.7757 50.5804L83.7576 50.8641L83.6187 53.2123C84.2834 53.7403 85.1123 54.018 85.9609 53.9971C87.4321 53.8802 88.8668 53.4805 90.1865 52.8199C90.6202 52.6303 91.0895 52.5356 91.5628 52.5423C92.1025 52.5413 92.6373 52.6438 93.1384 52.8441L93.1625 52.8562C93.7288 52.991 94.242 53.2916 94.6367 53.7196C95.0313 54.1475 95.2894 54.6834 95.378 55.2587C95.3961 56.1823 94.7139 57.5586 91.3395 58.8927C90.9954 59.0255 90.5547 59.1704 90.0899 59.3153C88.2186 59.9069 85.4056 60.8003 84.5604 62.8044C84.3399 63.4579 84.2656 64.1518 84.3428 64.8371C84.42 65.5224 84.6468 66.1824 85.0071 66.7704L85.0313 66.8248C86.7177 70.6801 89.2729 74.0931 92.4973 76.797C95.7216 79.5009 99.5277 81.4223 103.618 82.4112C103.875 82.4552 104.106 82.5921 104.269 82.7957C104.431 82.9994 104.513 83.2557 104.499 83.5159C104.485 83.7154 104.438 83.9112 104.36 84.0954" fill="#FFC700"/>
</svg>
