<svg width="119" height="135" viewBox="0 0 119 135" fill="none" xmlns="http://www.w3.org/2000/svg">
<path d="M88.0631 48.4695C96.7329 54.6639 107.354 58.3086 118.825 58.3086V36.2464C116.654 36.2473 114.489 36.0208 112.365 35.5706V52.9367C100.895 52.9367 90.2749 49.2925 81.6032 43.0986V88.1216C81.6032 110.645 63.3351 128.902 40.8023 128.902C32.3947 128.902 24.5799 126.361 18.0884 122.004C25.4975 129.576 35.83 134.273 47.2608 134.273C69.7955 134.273 88.064 116.016 88.064 93.4921V48.4695H88.0631ZM96.0329 26.2115C91.6019 21.3734 88.6925 15.1209 88.0631 8.20847V5.37097H81.9411C83.4821 14.1564 88.7389 21.6621 96.0329 26.2115ZM32.3404 104.721C29.8646 101.477 28.5265 97.5082 28.5328 93.4276C28.5328 83.1266 36.8884 74.7743 47.1972 74.7743C49.1181 74.7732 51.0276 75.068 52.8587 75.6483V53.0927C50.7189 52.7998 48.5595 52.6749 46.4011 52.7209V70.2769C44.5691 69.6965 42.6586 69.4018 40.7368 69.4033C30.4284 69.4033 22.0733 77.7547 22.0733 88.0571C22.0733 95.3418 26.2495 101.649 32.3404 104.721Z" fill="#FF004F"/>
<path d="M81.6032 43.0981C90.2754 49.292 100.894 52.9363 112.365 52.9363V35.5701C105.962 34.2069 100.294 30.8629 96.0326 26.2115C88.7381 21.6616 83.4822 14.1559 81.9412 5.37097H65.8608V93.4912C65.8241 103.764 57.4829 112.082 47.1963 112.082C41.1352 112.082 35.7498 109.195 32.3395 104.72C26.2496 101.649 22.0729 95.3414 22.0729 88.0575C22.0729 77.7561 30.4281 69.4038 40.7364 69.4038C42.7115 69.4038 44.6151 69.7111 46.4007 70.2774V52.7214C24.2634 53.1786 6.45996 71.2572 6.45996 93.4916C6.45996 104.591 10.8933 114.653 18.0889 122.005C24.5804 126.361 32.3948 128.903 40.8028 128.903C63.3361 128.903 81.6037 110.644 81.6037 88.1216L81.6032 43.0981Z" fill="black"/>
<path d="M112.365 35.5697V30.875C106.591 30.8834 100.931 29.2673 96.0325 26.2114C100.369 30.9563 106.079 34.2283 112.365 35.5706M81.9406 5.37049C81.7938 4.53107 81.6811 3.68604 81.6027 2.8375V0H59.3994V88.1211C59.3641 98.3933 51.0229 106.711 40.7359 106.711C37.8196 106.716 34.9432 106.034 32.339 104.721C35.7493 109.195 41.1346 112.082 47.1958 112.082C57.4819 112.082 65.8241 103.765 65.8603 93.4916V5.37096L81.9406 5.37049ZM46.4016 52.7209V47.7222C44.5462 47.4689 42.6758 47.342 40.8032 47.3425C18.2676 47.3425 0 65.6003 0 88.1211C0 102.241 7.17938 114.684 18.0893 122.004C10.8937 114.652 6.46037 104.59 6.46037 93.4911C6.46037 71.2572 24.2633 53.1781 46.4016 52.7209Z" fill="#00F2EA"/>
</svg>
