<svg width="122" height="122" viewBox="0 0 122 122" fill="none" xmlns="http://www.w3.org/2000/svg">
<path d="M93.4062 0H28.5938C12.8019 0 0 12.8019 0 28.5938V93.4062C0 109.198 12.8019 122 28.5938 122H93.4062C109.198 122 122 109.198 122 93.4062V28.5938C122 12.8019 109.198 0 93.4062 0Z" fill="url(#paint0_radial_4_33)"/>
<path d="M93.4062 0H28.5938C12.8019 0 0 12.8019 0 28.5938V93.4062C0 109.198 12.8019 122 28.5938 122H93.4062C109.198 122 122 109.198 122 93.4062V28.5938C122 12.8019 109.198 0 93.4062 0Z" fill="url(#paint1_radial_4_33)"/>
<path d="M61.0043 13.3438C48.0618 13.3438 46.4372 13.4005 41.3542 13.6316C36.2807 13.8642 32.8175 14.6672 29.7875 15.8457C26.6527 17.0628 23.994 18.6913 21.3452 21.3409C18.6941 23.9902 17.0657 26.6489 15.8448 29.7823C14.6629 32.8132 13.8589 36.2778 13.6306 41.3489C13.4033 46.4324 13.3438 48.0575 13.3438 61.0005C13.3438 73.9434 13.4009 75.5628 13.6316 80.6458C13.8651 85.7193 14.6681 89.1825 15.8457 92.2125C17.0638 95.3473 18.6922 98.006 21.3419 100.655C23.9902 103.306 26.6489 104.938 29.7813 106.155C32.8137 107.334 36.2774 108.137 41.3499 108.369C46.4334 108.6 48.0566 108.657 60.9986 108.657C73.9425 108.657 75.5618 108.6 80.6449 108.369C85.7183 108.137 89.1853 107.334 92.2177 106.155C95.3511 104.938 98.006 103.306 100.654 100.655C103.305 98.006 104.933 95.3473 106.154 92.2139C107.326 89.1825 108.13 85.7183 108.368 80.6468C108.597 75.5637 108.656 73.9434 108.656 61.0005C108.656 48.0575 108.597 46.4334 108.368 41.3499C108.13 36.2764 107.326 32.8137 106.154 29.7837C104.933 26.6489 103.305 23.9902 100.654 21.3409C98.0032 18.6903 95.3521 17.0619 92.2148 15.8462C89.1768 14.6672 85.7117 13.8637 80.6382 13.6316C75.5547 13.4005 73.9363 13.3438 60.9895 13.3438H61.0043ZM56.729 21.9319C57.9981 21.93 59.414 21.9319 61.0043 21.9319C73.729 21.9319 75.2368 21.9776 80.2617 22.2059C84.9082 22.4185 87.4302 23.1948 89.11 23.8472C91.3342 24.7107 92.9197 25.7434 94.5867 27.4119C96.2547 29.0798 97.2869 30.6682 98.1528 32.8923C98.8052 34.5698 99.5825 37.0918 99.7941 41.7383C100.022 46.7622 100.072 48.271 100.072 60.9895C100.072 73.708 100.022 75.2173 99.7941 80.2407C99.5816 84.8872 98.8052 87.4092 98.1528 89.0872C97.2893 91.3113 96.2547 92.8949 94.5867 94.5619C92.9187 96.2299 91.3351 97.2621 89.11 98.1261C87.4321 98.7814 84.9082 99.5558 80.2617 99.7684C75.2378 99.9966 73.729 100.046 61.0043 100.046C48.2791 100.046 46.7708 99.9966 41.7474 99.7684C37.1009 99.5539 34.5789 98.7776 32.8976 98.1252C30.6739 97.2612 29.0851 96.2289 27.4171 94.561C25.7491 92.893 24.7169 91.3084 23.851 89.0834C23.1986 87.4054 22.4213 84.8834 22.2097 80.2369C21.9814 75.213 21.9357 73.7042 21.9357 60.9776C21.9357 48.251 21.9814 46.7503 22.2097 41.7264C22.4223 37.0799 23.1986 34.5579 23.851 32.878C24.715 30.6539 25.7491 29.0655 27.4176 27.3976C29.086 25.7296 30.6739 24.6969 32.8981 23.8315C34.5779 23.1762 37.1009 22.4018 41.7474 22.1883C46.1436 21.9895 47.8474 21.93 56.729 21.92V21.9319ZM86.4432 29.8447C83.286 29.8447 80.7244 32.4039 80.7244 35.5616C80.7244 38.7188 83.286 41.2803 86.4432 41.2803C89.6004 41.2803 92.1619 38.7188 92.1619 35.5616C92.1619 32.4043 89.6004 29.8428 86.4432 29.8428V29.8447ZM61.0043 36.5266C47.489 36.5266 36.5309 47.4847 36.5309 61.0005C36.5309 74.5163 47.489 85.4691 61.0043 85.4691C74.5201 85.4691 85.4743 74.5163 85.4743 61.0005C85.4743 47.4852 74.5191 36.5266 61.0033 36.5266H61.0043ZM61.0043 45.1147C69.7773 45.1147 76.89 52.2265 76.89 61.0005C76.89 69.7735 69.7773 76.8862 61.0043 76.8862C52.2313 76.8862 45.119 69.7735 45.119 61.0005C45.119 52.2265 52.2308 45.1147 61.0043 45.1147Z" fill="white"/>
<defs>
<radialGradient id="paint0_radial_4_33" cx="0" cy="0" r="1" gradientUnits="userSpaceOnUse" gradientTransform="translate(32.4062 131.396) rotate(-90) scale(120.911 112.457)">
<stop stop-color="#FFDD55"/>
<stop offset="0.1" stop-color="#FFDD55"/>
<stop offset="0.5" stop-color="#FF543E"/>
<stop offset="1" stop-color="#C837AB"/>
</radialGradient>
<radialGradient id="paint1_radial_4_33" cx="0" cy="0" r="1" gradientUnits="userSpaceOnUse" gradientTransform="translate(-20.4355 8.78829) rotate(78.681) scale(54.0479 222.787)">
<stop stop-color="#3771C8"/>
<stop offset="0.128" stop-color="#3771C8"/>
<stop offset="1" stop-color="#6600FF" stop-opacity="0"/>
</radialGradient>
</defs>
</svg>
